<svg id="Grupo_5197" data-name="Grupo 5197" xmlns="http://www.w3.org/2000/svg" xmlns:xlink="http://www.w3.org/1999/xlink" width="250.302" height="377.706" viewBox="0 0 250.302 377.706">
  <defs>
    <clipPath id="clip-path">
      <rect id="Rectángulo_2122" data-name="Rectángulo 2122" width="250.302" height="377.706" fill="none"/>
    </clipPath>
    <clipPath id="clip-path-3">
      <rect id="Rectángulo_2108" data-name="Rectángulo 2108" width="113.382" height="291.394" transform="translate(4.025 82.52)" fill="none"/>
    </clipPath>
    <clipPath id="clip-path-4">
      <rect id="Rectángulo_2109" data-name="Rectángulo 2109" width="12.164" height="4.451" transform="translate(235.125 105.412)" fill="none"/>
    </clipPath>
    <clipPath id="clip-path-5">
      <rect id="Rectángulo_2110" data-name="Rectángulo 2110" width="17.16" height="38.069" transform="translate(86.794 79.794)" fill="none"/>
    </clipPath>
    <clipPath id="clip-path-6">
      <rect id="Rectángulo_2111" data-name="Rectángulo 2111" width="66.572" height="43.782" transform="translate(46.668 92.804)" fill="none"/>
    </clipPath>
    <clipPath id="clip-path-7">
      <rect id="Rectángulo_2112" data-name="Rectángulo 2112" width="29.839" height="27.546" transform="translate(109.376 134.606)" fill="none"/>
    </clipPath>
    <clipPath id="clip-path-8">
      <rect id="Rectángulo_2113" data-name="Rectángulo 2113" width="61.475" height="46.63" transform="translate(108.772 92.321)" fill="none"/>
    </clipPath>
    <clipPath id="clip-path-9">
      <rect id="Rectángulo_2114" data-name="Rectángulo 2114" width="6.899" height="11.273" transform="translate(127.381 6.884)" fill="none"/>
    </clipPath>
    <clipPath id="clip-path-10">
      <rect id="Rectángulo_2115" data-name="Rectángulo 2115" width="69.995" height="11.307" transform="translate(180.002 118.127)" fill="none"/>
    </clipPath>
    <clipPath id="clip-path-11">
      <rect id="Rectángulo_2116" data-name="Rectángulo 2116" width="8.543" height="7.904" transform="translate(221.327 40.506)" fill="none"/>
    </clipPath>
    <clipPath id="clip-path-12">
      <rect id="Rectángulo_2117" data-name="Rectángulo 2117" width="86.471" height="47.983" transform="translate(130.155 63.407)" fill="none"/>
    </clipPath>
    <clipPath id="clip-path-13">
      <rect id="Rectángulo_2118" data-name="Rectángulo 2118" width="96.821" height="88.227" transform="translate(145.041 10.909)" fill="none"/>
    </clipPath>
    <clipPath id="clip-path-14">
      <rect id="Rectángulo_2119" data-name="Rectángulo 2119" width="32.941" height="45.308" transform="translate(162.278 33.841)" fill="none"/>
    </clipPath>
    <clipPath id="clip-path-15">
      <rect id="Rectángulo_2120" data-name="Rectángulo 2120" width="12.631" height="25.068" transform="translate(133.496 33.773)" fill="none"/>
    </clipPath>
  </defs>
  <g id="Grupo_5196" data-name="Grupo 5196" clip-path="url(#clip-path)">
    <g id="Grupo_5195" data-name="Grupo 5195">
      <g id="Grupo_5194" data-name="Grupo 5194" clip-path="url(#clip-path)">
        <path id="Trazado_2384" data-name="Trazado 2384" d="M12.389,375.132A62.229,62.229,0,0,1,3.913,360.3c-9.78-24.52.448-44.982,12.29-68.677,8.63-17.265,18.412-36.835,21.49-61.061,3.15-24.8-2.618-41.511-7.708-56.256-5.482-15.88-10.215-29.6-.906-46.957,19.869-37.051,56.271-43.011,85.52-47.8l1.131,6.908C88,90.994,53.486,96.646,35.249,130.654c-7.864,14.665-4,25.864,1.353,41.365,5.075,14.7,11.391,33,8.034,59.423-3.227,25.408-13.292,45.544-22.171,63.308C10.918,317.852,1.8,336.1,10.415,357.7a55.272,55.272,0,0,0,7.525,13.165Z" fill="#fff"/>
        <g id="Grupo_5155" data-name="Grupo 5155" opacity="0.2">
          <g id="Grupo_5154" data-name="Grupo 5154">
            <g id="Grupo_5153" data-name="Grupo 5153" clip-path="url(#clip-path-3)">
              <path id="Trazado_2385" data-name="Trazado 2385" d="M15.975,373.914a60.235,60.235,0,0,1-8.2-14.358c-9.448-23.687.594-43.778,12.222-67.041,8.7-17.409,18.563-37.14,21.683-61.705,3.215-25.3-2.6-42.238-7.729-57.18-5.285-15.4-9.85-28.694-1.111-45.327,16.5-31.4,55.891-41.167,84.086-45.784l.485,2.961C89.845,89.993,51.366,99.486,35.493,129.7c-8.139,15.489-3.977,27.612,1.292,42.959,4.976,14.5,11.169,32.538,7.868,58.533-3.186,25.071-13.169,45.044-21.977,62.666-11.305,22.619-21.068,42.152-12.118,64.589a57.282,57.282,0,0,0,7.8,13.642Z" fill="#0a0a4f"/>
            </g>
          </g>
        </g>
        <path id="Trazado_2386" data-name="Trazado 2386" d="M222.331,126.418v0l.035-.008q1.145-.2,2.268-.431a24.253,24.253,0,0,1,5.8-.418s16.775,9.6,19.559-7.436c1.483-9.081-2.618-13.3-8.792-12.656.023-.014,4.452-2.6-.876-6.683-3.73-2.861-7.946,3.606-10.151,7.769l-4.4.162-50.74,1.26c.92,5.265-.816,14.853-1.528,19.9,13.914,3.03,33.574,1.129,48.819-1.465" fill="#f7f7fc"/>
        <path id="Trazado_2387" data-name="Trazado 2387" d="M231.4,107.409c.469,2.1,1.447,8.2-.1,17.911a1.238,1.238,0,0,1-1.3.87,8.869,8.869,0,0,0-3.886-.28l-1.792.269c-.724,0-1.31-.444-1.309-.988l.033-17.633c0-.545.589-.985,1.313-.984l5.756.011a1.259,1.259,0,0,1,1.291.824" fill="#0a0a4f"/>
        <path id="Trazado_2388" data-name="Trazado 2388" d="M99.9,130.142c-3.271,7.473-.9,15.731,5.3,18.443s13.873-1.147,17.144-8.621.9-15.73-5.3-18.443-13.873,1.148-17.144,8.621" fill="#f7f7fc"/>
        <path id="Trazado_2389" data-name="Trazado 2389" d="M74.18,110.472s3.518,14.541,22.385,25.42L107.2,111.584l-18-13.279Z" fill="#f7f7fc"/>
        <path id="Trazado_2390" data-name="Trazado 2390" d="M84.888,84.156l-.063.08,4.549,4.528a1.507,1.507,0,0,1,.121,2c-9.207,11.739-7.528,16.82-10.172,18.707-.6.427-10.455,1.066-10.976.548l-2.165-2.155c-3.431,1.873-8.184,2.645-14.67.5-18.1-5.985,20.325-33.067,20.325-33.067s9.54-4.2,13.051,8.861" fill="#f7f7fc"/>
        <path id="Trazado_2391" data-name="Trazado 2391" d="M75.586,116.357c2.648-2.148,10.046-8.645,19.53-21.145.485-.639,1.367-2.547.873-3.006L90.883,89.37a1.473,1.473,0,0,0-2.052.258L69.554,110.4c-.6.641-.158,1.483-.166,2.048s3.625,4.98,3.625,4.98c.476.442,1.974-.583,2.573-1.069" fill="#0a0a4f"/>
        <path id="Trazado_2392" data-name="Trazado 2392" d="M152.755,153.4c13.283-5.049,36.027-34.467,49.018-52.469A53.515,53.515,0,0,1,170.087,82c-8.081-9.793-23.989-11.981-24.3-23.148-20.236,9.44-40.474,16.341-47.8,28.173l5.722,16.221A78.2,78.2,0,0,0,137.915,144.7Z" fill="#f7f7fc"/>
        <g id="Grupo_5158" data-name="Grupo 5158" opacity="0.2">
          <g id="Grupo_5157" data-name="Grupo 5157">
            <g id="Grupo_5156" data-name="Grupo 5156" clip-path="url(#clip-path-4)">
              <path id="Trazado_2393" data-name="Trazado 2393" d="M235.854,107.281c4.606-2.826,9.818-2.059,11.435-.258-.632-.7-1.794-.62-2.718-.548a10.861,10.861,0,0,0-7.137,3.009,1.366,1.366,0,1,1-1.58-2.2" fill="#0a0a4f"/>
            </g>
          </g>
        </g>
        <path id="Trazado_2394" data-name="Trazado 2394" d="M117.24,72.692S94.545,80.394,89.2,98.305s-5.7,31.838,7.363,37.587,69.047-24.99,20.675-63.2" fill="#f7f7fc"/>
        <path id="Trazado_2395" data-name="Trazado 2395" d="M173.041,136.626s-12.061-20.711-30.677-22.385-32.335.747-35.372,14.69,38.221,62.7,66.049,7.7" fill="#f7f7fc"/>
        <g id="Grupo_5161" data-name="Grupo 5161" opacity="0.2">
          <g id="Grupo_5160" data-name="Grupo 5160">
            <g id="Grupo_5159" data-name="Grupo 5159" clip-path="url(#clip-path-5)">
              <path id="Trazado_2396" data-name="Trazado 2396" d="M103.885,80.2A37,37,0,0,0,92.707,99.928c-.634,4.357-1,8.652-1.732,13.025a30.455,30.455,0,0,1-.715,4.686.269.269,0,0,1-.331.214c-2.645-3.9-3.477-8.995-3.013-13.671a38.652,38.652,0,0,1,6.695-15.276,37.221,37.221,0,0,1,5.6-5.982c.454-.426,5.385-4.388,4.679-2.724" fill="#0a0a4f"/>
            </g>
          </g>
        </g>
        <path id="Trazado_2397" data-name="Trazado 2397" d="M124.035,127.284a8.79,8.79,0,0,1-2.993,2.777,11.582,11.582,0,0,1-3.357,1.259.147.147,0,0,1-.1-.27c1.683-1.141,4.1-3.15,4.415-5.31Z" fill="#c9c9d3"/>
        <path id="Trazado_2398" data-name="Trazado 2398" d="M105.2,148.585a11.063,11.063,0,0,0,8.709-.057c-8.831-1.276-12.987-4.768-14.886-7.306a11.256,11.256,0,0,0,6.177,7.363" fill="#c9c9d3"/>
        <g id="Grupo_5165" data-name="Grupo 5165" opacity="0.2">
          <g id="Grupo_5164" data-name="Grupo 5164">
            <g id="Grupo_5163" data-name="Grupo 5163" clip-path="url(#clip-path-6)">
              <path id="Trazado_2399" data-name="Trazado 2399" d="M74.713,110.04c-.314.021-.633.041-.951.059q.269.418.555.853c-.1-.312-.137-.48-.137-.48Z" fill="#0a0a4f"/>
              <path id="Trazado_2400" data-name="Trazado 2400" d="M50.59,94.6l1.35-1.8a25.952,25.952,0,0,0-4.728,7.4L48.365,97.8Z" fill="#0a0a4f"/>
              <path id="Trazado_2401" data-name="Trazado 2401" d="M51.512,108.362c6.485,2.145,11.239,1.373,14.67-.5l2.165,2.154c.259.258,2.825.229,5.415.083a67.169,67.169,0,0,1-3.7-6.435C50.042,105.688,51.94,92.806,51.94,92.8h0l-1.35,1.8-2.225,3.2-1.153,2.408c-1.3,3.586-.429,6.592,4.3,8.156" fill="#0a0a4f"/>
              <path id="Trazado_2402" data-name="Trazado 2402" d="M74.317,110.953c.7,2.294,4.383,12.415,16.84,21.44a18.916,18.916,0,0,0,5.409,3.5c3.459,1.523,9.93.485,16.675-2.572a.307.307,0,0,0-.051.006c-18.443,3.919-32.291-12.38-38.873-22.373" fill="#0a0a4f"/>
            </g>
          </g>
        </g>
        <g id="Grupo_5168" data-name="Grupo 5168" opacity="0.2">
          <g id="Grupo_5167" data-name="Grupo 5167">
            <g id="Grupo_5166" data-name="Grupo 5166" clip-path="url(#clip-path-7)">
              <path id="Trazado_2403" data-name="Trazado 2403" d="M109.775,134.776c2.039,7.412,7.993,13.119,14.232,17.233,3.674,2.1,7.351,4.211,10.821,6.662a33.917,33.917,0,0,1,4.317,3.114.21.21,0,0,1-.152.365,29.183,29.183,0,0,1-17.085-7.287,47.165,47.165,0,0,1-7.484-7.772c-2.54-3.621-4.734-7.805-5.047-12.28a.2.2,0,0,1,.4-.035" fill="#0a0a4f"/>
            </g>
          </g>
        </g>
        <path id="Trazado_2404" data-name="Trazado 2404" d="M112.759,74.335s3.507,13.024,17.216,26.628l-8.123,6.777s-20.919-22.526-17.219-28.564Z" fill="#0a0a4f"/>
        <path id="Trazado_2405" data-name="Trazado 2405" d="M175.863,133.893c-5.652.934-17.579-8.179-17.579-8.179s-7.684.006-6.517,4.106,17.786,13.059,17.786,13.059l3.353-5.823Z" fill="#0a0a4f"/>
        <g id="Grupo_5171" data-name="Grupo 5171" opacity="0.2">
          <g id="Grupo_5170" data-name="Grupo 5170">
            <g id="Grupo_5169" data-name="Grupo 5169" clip-path="url(#clip-path-8)">
              <path id="Trazado_2406" data-name="Trazado 2406" d="M137.138,137.292l-26.263-20.223c-2.931-2.256-2.779-5.968.339-8.29L130.93,94.1a9.6,9.6,0,0,1,10.952-.119L168.145,114.2c2.931,2.257,2.779,5.968-.339,8.29L148.09,137.174a9.592,9.592,0,0,1-10.952.118" fill="#0a0a4f"/>
            </g>
          </g>
        </g>
        <path id="Trazado_2407" data-name="Trazado 2407" d="M138.679,135.048l-24.018-18.519c-2.68-2.067-2.393-5.658.641-8.021l19.186-14.947c3.035-2.362,7.667-2.6,10.347-.538l24.017,18.521c2.681,2.067,2.393,5.658-.641,8.022L149.025,134.51c-3.034,2.364-7.666,2.605-10.346.538" fill="#fff"/>
        <path id="Trazado_2408" data-name="Trazado 2408" d="M136.564,124.881l-8.774-6.765a1.24,1.24,0,0,1,.164-2.046l1.918-1.5a2.282,2.282,0,0,1,2.639-.137l8.774,6.765a1.241,1.241,0,0,1-.164,2.047l-1.918,1.494a2.282,2.282,0,0,1-2.639.137" fill="#0a0a4f"/>
        <path id="Trazado_2409" data-name="Trazado 2409" d="M156.908,122.06a5.677,5.677,0,0,1-6.572.342c-1.7-1.313-1.52-3.594.408-5.1a5.672,5.672,0,0,1,6.571-.342c1.7,1.313,1.52,3.594-.407,5.1" fill="#004de8"/>
        <path id="Trazado_2410" data-name="Trazado 2410" d="M147.2,114.574a5.677,5.677,0,0,1-6.572.342c-1.7-1.313-1.52-3.594.408-5.1a5.672,5.672,0,0,1,6.571-.342c1.7,1.313,1.52,3.594-.407,5.1" fill="#ffa414"/>
        <path id="Trazado_2411" data-name="Trazado 2411" d="M137.559,107.035a5.679,5.679,0,0,1-6.573.342c-1.7-1.313-1.52-3.594.409-5.1a5.671,5.671,0,0,1,6.57-.342c1.7,1.313,1.52,3.594-.406,5.1" fill="#eb0050"/>
        <path id="Trazado_2412" data-name="Trazado 2412" d="M130.086,25.753,127.67,56.337a10.575,10.575,0,0,0,1.258,5.893l4.7,8.614a10.567,10.567,0,0,1-6.868,15.35l-.468.11a10.617,10.617,0,0,1-10.543-3.516c-2.934-3.475-6.913-7.262-8.022-13.061-2.68-14.013,1.419-33.668,2.717-43.295h0l.007-.036c.105-.781.226-1.555.358-2.322" fill="#f7f7fc"/>
        <path id="Trazado_2413" data-name="Trazado 2413" d="M129.862,26.376l.987-4.37c4.578-1.426,11.84-4.433,9.675-8.7-3.091-6.1-6.505-2.149-6.522-2.129C135.807,5.118,132.349.224,122.985.007,105.419-.4,111.879,18.185,111.879,18.185l-1.23,7.727Z" fill="#f7f7fc"/>
        <path id="Trazado_2414" data-name="Trazado 2414" d="M111.395,21.966c2.177-.353,8.473-.986,18.321,1.161a1.262,1.262,0,0,1,.814,1.377,8.97,8.97,0,0,0-.515,3.933l.171,1.837c-.044.736-.531,1.305-1.089,1.272l-18.78-1.289c-.557-.033-.759-.626-.715-1.362l.874-5.666a1.283,1.283,0,0,1,.919-1.263" fill="#0a0a4f"/>
        <g id="Grupo_5174" data-name="Grupo 5174" opacity="0.2">
          <g id="Grupo_5173" data-name="Grupo 5173">
            <g id="Grupo_5172" data-name="Grupo 5172" clip-path="url(#clip-path-9)">
              <path id="Trazado_2415" data-name="Trazado 2415" d="M129.721,17.782c4.265-3.473,5.286-8.738,4.1-10.9.465.844-.009,1.932-.388,2.8a11.053,11.053,0,0,1-5.3,5.842,1.391,1.391,0,1,0,1.586,2.26" fill="#0a0a4f"/>
            </g>
          </g>
        </g>
        <g id="Grupo_5177" data-name="Grupo 5177" opacity="0.2">
          <g id="Grupo_5176" data-name="Grupo 5176">
            <g id="Grupo_5175" data-name="Grupo 5175" clip-path="url(#clip-path-10)">
              <path id="Trazado_2416" data-name="Trazado 2416" d="M222.332,126.42l.036-.008q1.145-.2,2.267-.431a24.253,24.253,0,0,1,5.8-.418s16.775,9.6,19.559-7.436c-6.612,9.982-20.781,3.573-20.781,3.573-38.389,6.158-46.668,4.107-46.668,4.107l-2.546,3.1c13.12,1.425,29.328-.28,42.329-2.493Z" fill="#0a0a4f"/>
            </g>
          </g>
        </g>
        <g id="Grupo_5180" data-name="Grupo 5180" opacity="0.2">
          <g id="Grupo_5179" data-name="Grupo 5179">
            <g id="Grupo_5178" data-name="Grupo 5178" clip-path="url(#clip-path-11)">
              <path id="Trazado_2417" data-name="Trazado 2417" d="M229.515,46.392a4.4,4.4,0,1,1-2.215-5.38,4.131,4.131,0,0,1,2.215,5.38" fill="#fff"/>
            </g>
          </g>
        </g>
        <g id="Grupo_5183" data-name="Grupo 5183" opacity="0.2">
          <g id="Grupo_5182" data-name="Grupo 5182">
            <g id="Grupo_5181" data-name="Grupo 5181" clip-path="url(#clip-path-12)">
              <path id="Trazado_2418" data-name="Trazado 2418" d="M216.067,101.937c-14.91,6.637-33.541,6.179-49.915-1.906-15.771-7.787-27.167-21.479-31.39-36.624l-.876.465-3.136,1.774c-.123-.316-.972-2.073-.4-.119A59.116,59.116,0,0,0,136.76,79.8a66.272,66.272,0,0,0,27.265,24.541q1.461.722,2.944,1.37a65.94,65.94,0,0,0,32.9,5.379,58.773,58.773,0,0,0,16.759-4.14l-10.723.242Z" fill="#0a0a4f"/>
            </g>
          </g>
        </g>
        <g id="Grupo_5187" data-name="Grupo 5187" opacity="0.2">
          <g id="Grupo_5186" data-name="Grupo 5186">
            <g id="Grupo_5185" data-name="Grupo 5185" clip-path="url(#clip-path-13)">
              <path id="Trazado_2419" data-name="Trazado 2419" d="M236.434,76.609a38.152,38.152,0,0,1-7.811,10.652,39.611,39.611,0,0,1-3.938,3.321c-13.448,9.915-33.26,11.643-50.961,2.9s-28.36-25.5-28.676-42.2a39.56,39.56,0,0,1,.243-5.173,38.158,38.158,0,0,1,12.126-23.9A40.872,40.872,0,0,1,166.53,15.9c12.984-6.624,29.87-6.9,45.178.66.734.363,1.452.743,2.162,1.133.709.31,1.417.634,2.12.981,13.8,6.817,22.869,19.058,25.248,31.987a37.236,37.236,0,0,1,.615,7.555,34.562,34.562,0,0,1-3.559,14.627q-.453.917-.955,1.794-.422.995-.9,1.973" fill="#0a0a4f"/>
            </g>
          </g>
        </g>
        <g id="Grupo_5190" data-name="Grupo 5190" opacity="0.2">
          <g id="Grupo_5189" data-name="Grupo 5189">
            <g id="Grupo_5188" data-name="Grupo 5188" clip-path="url(#clip-path-14)">
              <path id="Trazado_2420" data-name="Trazado 2420" d="M195.21,79.133c-8.142.222-16.544-1.846-23.067-6.96a27.361,27.361,0,0,1-9.815-18.661,31.059,31.059,0,0,1,2.338-13.337,30.1,30.1,0,0,1,3.4-6.334l.548.18c-.086,5.263-.622,10.342-.447,15.467.207,4.79.205,9.652,2.338,14.013,3.257,6.757,10.118,11.085,17.126,13.322a42.489,42.489,0,0,0,7.587,1.734l-.009.576" fill="#fff"/>
            </g>
          </g>
        </g>
        <path id="Trazado_2421" data-name="Trazado 2421" d="M244.18,64.67c.016-.258.033-.515.044-.773.923-20.579-11.808-41.787-33.651-52.572C188.6.474,163.855,3.359,148.089,16.811c-.1.087-.2.176-.3.263a44.866,44.866,0,0,0-15.342,29.851q-.054.582-.094,1.166c-1.408,20.9,11.384,42.646,33.6,53.613,22.073,10.9,46.941,7.94,62.7-5.667.392-.339.777-.688,1.159-1.04A44.84,44.84,0,0,0,244.18,64.67m-7.746,11.939a38.152,38.152,0,0,1-7.811,10.652,39.611,39.611,0,0,1-3.938,3.321c-13.448,9.915-33.26,11.643-50.961,2.9s-28.36-25.5-28.676-42.2a39.56,39.56,0,0,1,.243-5.173,38.158,38.158,0,0,1,12.126-23.9A40.872,40.872,0,0,1,166.53,15.9c12.984-6.624,29.87-6.9,45.178.66.734.363,1.452.743,2.162,1.133.709.31,1.417.634,2.12.981,13.8,6.817,22.869,19.058,25.248,31.987a37.236,37.236,0,0,1,.615,7.555,34.562,34.562,0,0,1-3.559,14.627q-.453.917-.955,1.794-.422.995-.9,1.973" fill="#f0f0f2"/>
        <path id="Trazado_2422" data-name="Trazado 2422" d="M227.7,85.447c-12.131,8.943-30,10.5-45.97,2.619S156.143,65.061,155.858,50a35.823,35.823,0,0,1,.219-4.666,34.416,34.416,0,0,1,10.939-21.563,36.846,36.846,0,0,1,8.22-5.694c11.116-5.671,25.4-6.177,38.634-.385-.709-.39-1.427-.77-2.161-1.133C196.4,9,179.514,9.274,166.53,15.9a40.843,40.843,0,0,0-9.112,6.311,38.153,38.153,0,0,0-12.127,23.9,39.562,39.562,0,0,0-.242,5.173c.315,16.7,10.986,33.463,28.676,42.2s37.512,7.011,50.96-2.9a39.611,39.611,0,0,0,3.938-3.321,38.152,38.152,0,0,0,7.811-10.652q.484-.979.906-1.973a34.5,34.5,0,0,1-6.092,7.815,35.866,35.866,0,0,1-3.552,3" fill="#f7f7fc"/>
        <path id="Trazado_2423" data-name="Trazado 2423" d="M141.315,58.491h0a12.869,12.869,0,1,1,17.237-5.841,12.869,12.869,0,0,1-17.237,5.841" fill="#f7f7fc"/>
        <g id="Grupo_5193" data-name="Grupo 5193" opacity="0.2">
          <g id="Grupo_5192" data-name="Grupo 5192">
            <g id="Grupo_5191" data-name="Grupo 5191" clip-path="url(#clip-path-15)">
              <path id="Trazado_2424" data-name="Trazado 2424" d="M146.127,58.841c-11.661-.195-16.534-11.564-9.078-20.383a13.144,13.144,0,0,1,7.732-4.685,19.457,19.457,0,0,0-5.842,6.067c-5.223,8.824-1.83,15.143,7.188,19" fill="#0a0a4f"/>
            </g>
          </g>
        </g>
        <path id="Trazado_2425" data-name="Trazado 2425" d="M141.589,53.3h0a8.35,8.35,0,1,1,11.773-.925,8.35,8.35,0,0,1-11.773.925" fill="#0a0a4f"/>
        <path id="Trazado_2426" data-name="Trazado 2426" d="M4.025,377.706s12.08-15.878,24.61-3.792" fill="#15159b"/>
      </g>
    </g>
  </g>
</svg>
