<svg xmlns="http://www.w3.org/2000/svg" xmlns:xlink="http://www.w3.org/1999/xlink" width="652" height="423" viewBox="0 0 652 423">
  <defs>
    <clipPath id="clip-path">
      <path id="Trazado_2383" data-name="Trazado 2383" d="M93,0V423H728a17,17,0,0,0,17-17V17A17,17,0,0,0,728,0Z" fill="none"/>
    </clipPath>
  </defs>
  <g id="Grupo_5152" data-name="Grupo 5152" transform="translate(-93)" style="mix-blend-mode: screen;isolation: isolate">
    <g id="Grupo_5151" data-name="Grupo 5151" clip-path="url(#clip-path)">
      <path id="Trazado_2366" data-name="Trazado 2366" d="M0,469C0,320.435,120.435,200,269,200S538,320.435,538,469,417.565,738,269,738,0,617.565,0,469" fill="#050521"/>
      <path id="Trazado_2367" data-name="Trazado 2367" d="M295.983,383.242c-24.555,19.042-33.384,55.828-19.313,89.414,16.425,39.306,57.939,59.359,92.7,44.815,1.49-.639,2.966-1.3,4.387-2.042a61.709,61.709,0,0,1-13.892,8.1c-34.74,14.549-76.267-5.518-92.733-44.815-15.754-37.656-2.759-79.27,28.863-95.47" fill="#15159b"/>
      <path id="Trazado_2368" data-name="Trazado 2368" d="M393.062,426.015c14.048,33.568,5.237,70.354-19.313,89.414-1.4.726-2.878,1.4-4.368,2.041-34.754,14.526-76.281-5.5-92.748-44.792-14.034-33.567-5.2-70.39,19.359-89.413a37.9,37.9,0,0,1,4.3-2.042c34.776-14.549,76.3,5.518,92.77,44.815" fill="#0a0a4f"/>
      <path id="Trazado_2369" data-name="Trazado 2369" d="M193.735,314.594c-3.32,12.645,3.219,27.636,16.609,35.913,15.685,9.679,34.8,6.5,42.7-7.068.322-.584.657-1.191.919-1.793a24.935,24.935,0,0,1-2.575,6.235c-7.9,13.57-27.015,16.752-42.7,7.068-15.009-9.271-21.4-26.965-14.972-40.355" fill="#15159b"/>
      <path id="Trazado_2370" data-name="Trazado 2370" d="M237.359,305.751c13.39,8.278,19.929,23.25,16.623,35.914-.285.584-.621,1.19-.92,1.775-7.9,13.587-27.033,16.751-42.7,7.067-13.39-8.277-19.929-23.249-16.609-35.913a14.03,14.03,0,0,1,.92-1.756c7.9-13.588,27.015-16.765,42.7-7.087" fill="#0a0a4f"/>
      <path id="Trazado_2371" data-name="Trazado 2371" d="M412.49,384.364a22.711,22.711,0,0,0-1.812-27.958,23.2,23.2,0,0,0-31.916-4.74c-.391.321-.782.657-1.155.993a19.988,19.988,0,0,1,3.518-3.624,23.2,23.2,0,0,1,31.917,4.741,22.26,22.26,0,0,1-.552,30.6" fill="#15159b"/>
      <path id="Trazado_2372" data-name="Trazado 2372" d="M379.414,380.6A22.711,22.711,0,0,1,377.6,352.64c.354-.335.745-.676,1.136-.993a23.221,23.221,0,0,1,31.944,4.741,22.761,22.761,0,0,1,1.812,27.976c-.372.336-.745.676-1.136.975a23.221,23.221,0,0,1-31.944-4.741" fill="#0a0a4f"/>
      <path id="Trazado_2373" data-name="Trazado 2373" d="M217.039,407.13a17.014,17.014,0,0,0-9.394,16.131c.087,8.668,5.683,15.2,12.539,14.6a7.231,7.231,0,0,0,.869-.1,10.757,10.757,0,0,1-2.9.676c-6.837.62-12.452-5.932-12.521-14.6a16.144,16.144,0,0,1,11.4-16.7" fill="#15159b"/>
      <path id="Trazado_2374" data-name="Trazado 2374" d="M230.434,421.628a16.985,16.985,0,0,1-9.381,16.126,7.227,7.227,0,0,1-.869.106c-6.856.621-12.452-5.932-12.539-14.6a17.015,17.015,0,0,1,9.394-16.126c.285-.055.57-.087.851-.124,6.856-.6,12.47,5.932,12.539,14.618" fill="#0a0a4f"/>
      <path id="Trazado_2375" data-name="Trazado 2375" d="M170.914,268.216c11.67,12.484,2.469,40.465-20.692,62.7-20.072,19.313-44.047,27.939-57.939,21.97-11.758-12.415-2.575-40.5,20.605-62.771,20.108-19.313,44.176-27.976,57.994-21.9" fill="#0a0a4f"/>
      <path id="Trazado_2376" data-name="Trazado 2376" d="M170.771,268.059l.143.161c-13.818-6.074-37.867,2.593-57.976,21.92-23.18,22.269-32.4,50.351-20.6,62.767A17.677,17.677,0,0,1,86.6,348.98c-11.882-12.416-2.68-40.534,20.568-62.877s51.7-30.446,63.6-18.044" fill="#15159b"/>
      <path id="Trazado_2377" data-name="Trazado 2377" d="M146.584,403.1a31.411,31.411,0,0,0-22.573,31.439c.179,17.639,13.335,31.774,29.429,31.631a25.573,25.573,0,0,1-6.18.819c-16.094.179-29.236-14.016-29.429-31.669s12.659-32.077,28.753-32.22" fill="#15159b"/>
      <path id="Trazado_2378" data-name="Trazado 2378" d="M176.05,434.738a31.412,31.412,0,0,1-22.555,31.439h-.036c-16.094.142-29.255-14-29.429-31.632A31.409,31.409,0,0,1,146.6,403.1h.055c16.094-.124,29.236,14.015,29.429,31.65" fill="#0a0a4f"/>
      <path id="Trazado_2379" data-name="Trazado 2379" d="M482.117,393.671c13.39,2.86,24.371,23.286,25.507,48.489,1.085,25.47-8.383,46.944-21.667,50.623-13.391-2.861-24.422-23.268-25.507-48.526-1.085-25.47,8.383-46.9,21.667-50.581" fill="#0a0a4f"/>
      <path id="Trazado_2380" data-name="Trazado 2380" d="M482.117,393.657a14.116,14.116,0,0,1,3.462-.57c15.028-.639,28.188,21.226,29.342,48.843s-10.038,50.549-25.079,51.206a15.938,15.938,0,0,1-3.89-.354c13.284-3.678,22.752-25.152,21.667-50.622-1.117-25.2-12.112-45.629-25.507-48.489" fill="#15159b"/>
      <path id="Trazado_2381" data-name="Trazado 2381" d="M412.906,308.323c6.143-16.622-5.274-37.066-26.288-46.443-19.893-8.915-41.385-4.814-50.692,8.953a9.124,9.124,0,0,1,.639-1.631c7.551-16.876,31.269-22.647,52.982-12.913s33.163,31.268,25.594,48.1a23.274,23.274,0,0,1-2.24,3.958" fill="#15159b"/>
      <path id="Trazado_2382" data-name="Trazado 2382" d="M362.164,317.272c-21-9.362-32.4-29.857-26.252-46.443,9.289-13.767,30.809-17.869,50.692-8.934,21.014,9.394,32.432,29.838,26.288,46.443-9.288,13.767-30.836,17.887-50.728,8.952" fill="#0a0a4f"/>
    </g>
  </g>
</svg>
