<svg id="Grupo_4430" data-name="Grupo 4430" xmlns="http://www.w3.org/2000/svg" xmlns:xlink="http://www.w3.org/1999/xlink" width="154.348" height="190.628" viewBox="0 0 154.348 190.628">
  <defs>
    <clipPath id="clip-path">
      <rect id="Rectángulo_1823" data-name="Rectángulo 1823" width="154.348" height="190.628" fill="none"/>
    </clipPath>
    <clipPath id="clip-path-3">
      <rect id="Rectángulo_1807" data-name="Rectángulo 1807" width="92.556" height="81.431" fill="none"/>
    </clipPath>
    <clipPath id="clip-path-4">
      <rect id="Rectángulo_1808" data-name="Rectángulo 1808" width="43.808" height="32.479" fill="none"/>
    </clipPath>
    <clipPath id="clip-path-5">
      <rect id="Rectángulo_1809" data-name="Rectángulo 1809" width="7.849" height="6.906" fill="none"/>
    </clipPath>
    <clipPath id="clip-path-6">
      <rect id="Rectángulo_1810" data-name="Rectángulo 1810" width="23.738" height="45.274" fill="none"/>
    </clipPath>
    <clipPath id="clip-path-7">
      <rect id="Rectángulo_1811" data-name="Rectángulo 1811" width="13.992" height="4.286" fill="none"/>
    </clipPath>
    <clipPath id="clip-path-8">
      <rect id="Rectángulo_1812" data-name="Rectángulo 1812" width="18.586" height="34.752" fill="none"/>
    </clipPath>
    <clipPath id="clip-path-9">
      <rect id="Rectángulo_1813" data-name="Rectángulo 1813" width="13.991" height="4.283" fill="none"/>
    </clipPath>
    <clipPath id="clip-path-11">
      <rect id="Rectángulo_1815" data-name="Rectángulo 1815" width="5.674" height="9.932" fill="none"/>
    </clipPath>
    <clipPath id="clip-path-12">
      <rect id="Rectángulo_1816" data-name="Rectángulo 1816" width="7.121" height="31.185" fill="none"/>
    </clipPath>
    <clipPath id="clip-path-13">
      <rect id="Rectángulo_1817" data-name="Rectángulo 1817" width="7.514" height="31.81" fill="none"/>
    </clipPath>
    <clipPath id="clip-path-14">
      <rect id="Rectángulo_1818" data-name="Rectángulo 1818" width="80.47" height="21.422" fill="none"/>
    </clipPath>
    <clipPath id="clip-path-15">
      <rect id="Rectángulo_1819" data-name="Rectángulo 1819" width="8.478" height="23.438" fill="none"/>
    </clipPath>
    <clipPath id="clip-path-16">
      <rect id="Rectángulo_1820" data-name="Rectángulo 1820" width="7.943" height="16.46" fill="none"/>
    </clipPath>
    <clipPath id="clip-path-17">
      <rect id="Rectángulo_1821" data-name="Rectángulo 1821" width="3.967" height="10.515" fill="none"/>
    </clipPath>
  </defs>
  <g id="Grupo_4429" data-name="Grupo 4429" clip-path="url(#clip-path)">
    <g id="Grupo_4428" data-name="Grupo 4428">
      <g id="Grupo_4427" data-name="Grupo 4427" clip-path="url(#clip-path)">
        <g id="Grupo_4384" data-name="Grupo 4384" transform="translate(24.512 6.545)" opacity="0.2">
          <g id="Grupo_4383" data-name="Grupo 4383">
            <g id="Grupo_4382" data-name="Grupo 4382" clip-path="url(#clip-path-3)">
              <path id="Trazado_2179" data-name="Trazado 2179" d="M159.861,111.761c-18.726,0-34.854-9.786-42.139-23.863a37.617,37.617,0,0,1-1.967-4.5,36.214,36.214,0,0,1,.276-25.44,38.772,38.772,0,0,1,5.1-9.2C129.4,37.659,143.656,30.33,159.861,30.33s30.455,7.326,38.722,18.416a39.226,39.226,0,0,1,4.1,6.841,36.253,36.253,0,0,1,1.284,27.807,37.586,37.586,0,0,1-1.955,4.481c-7.279,14.089-23.414,23.886-42.151,23.886" transform="translate(-113.583 -30.33)" fill="#0a0a4f"/>
            </g>
          </g>
        </g>
        <path id="Trazado_2180" data-name="Trazado 2180" d="M560.541,140.495l-.01-.1A4.88,4.88,0,0,0,555.675,136h-6.706a39.934,39.934,0,0,1,.477,29.889h6.232a4.88,4.88,0,0,0,4.855-4.388,104.436,104.436,0,0,0,.008-21.006" transform="translate(-430.5 -106.651)" fill="#f7f7fc"/>
        <path id="Trazado_2181" data-name="Trazado 2181" d="M59.183,136h-7.3a4.88,4.88,0,0,0-4.855,4.388,104.435,104.435,0,0,0-.008,21.006l.01.1a4.88,4.88,0,0,0,4.856,4.391H58.7A39.95,39.95,0,0,1,59.183,136" transform="translate(-36.46 -106.651)" fill="#f7f7fc"/>
        <path id="Trazado_2182" data-name="Trazado 2182" d="M12.062,378.829h0l-.013.03q-.443.945-.844,1.894a21.793,21.793,0,0,1-2.666,4.5S-7.144,392.709,4,403.495c5.94,5.75,11.159,4.888,13.846,0,0,.024-.367,4.615,5.38,2.779,4.024-1.286,1.412-7.712-.529-11.472l2.134-3.329L49.91,353.384a44.984,44.984,0,0,1-11.654-7.765c-9.368,8.714-20.294,20.63-26.195,33.21" transform="translate(0 -271.033)" fill="#f7f7fc"/>
        <path id="Trazado_2183" data-name="Trazado 2183" d="M339.78,345.657s27.1-32.887,54.173-40.96a17.876,17.876,0,0,1,9.218,13.985l-47.8,26.975Z" transform="translate(-266.454 -238.942)" fill="#f7f7fc"/>
        <path id="Trazado_2184" data-name="Trazado 2184" d="M186.422,361.209a48.356,48.356,0,0,1-29.738-9.914c-5.031,19.423-12.024,50.913-8.012,62.754a262.041,262.041,0,0,1,9.081,37.112h21.4s2.668-22.675,8.178-22.967c5.51.292,8.178,22.967,8.178,22.967h21.4a262.079,262.079,0,0,1,9.081-37.112c4.1-12.093-3.283-44.679-8.33-63.976a48.089,48.089,0,0,1-31.237,11.135" transform="translate(-115.654 -274.527)" fill="#f7f7fc"/>
        <path id="Trazado_2185" data-name="Trazado 2185" d="M592.121,230s8.555-8.177,5.283-11.67c-2.481-2.648-4.03-.563-13.5,6.872,0,0-3.243-6.4-6.1-4.52s-.227,9.773-.227,9.773l-11.653,8.632,8.848,14.243,17.48-10.159Z" transform="translate(-443.801 -170.349)" fill="#f7f7fc"/>
        <path id="Trazado_2186" data-name="Trazado 2186" d="M187.873,762.213c2.491-.422,9.72-1.305,21.243.061.589.07,2.064.644,2.064,1.237l-1.029,4.995a1.17,1.17,0,0,1-1.17,1.17H188.068a1.17,1.17,0,0,1-1.17-1.17l-.968-5.21c0-.571,1.379-.987,1.942-1.082" transform="translate(-145.807 -597.198)" fill="#0a0a4f"/>
        <path id="Trazado_2187" data-name="Trazado 2187" d="M576.281,295.1c1.354,1.4,4.99,5.656,8.4,13.89a1.114,1.114,0,0,1-.588,1.285l-4.359,2.659a1.066,1.066,0,0,1-1.472-.15l-8.934-14.163c-.257-.421.6-.518,1.153-.857L575.2,294.7c.491-.3.777.074,1.083.391" transform="translate(-446.428 -231.02)" fill="#0a0a4f"/>
        <path id="Trazado_2188" data-name="Trazado 2188" d="M50.653,519.585c-1.791-.731-6.791-3.135-13.164-9.256a1.112,1.112,0,0,1,.026-1.409,7.967,7.967,0,0,0,2.2-2.724l.72-1.461a1.063,1.063,0,0,1,1.4-.459l12.995,9.063a1.063,1.063,0,0,1,.053,1.473l-2.959,4.242a1.131,1.131,0,0,1-1.27.53" transform="translate(-29.212 -395.354)" fill="#0a0a4f"/>
        <path id="Trazado_2189" data-name="Trazado 2189" d="M148.993,533.149s30.621,13.76,77.51,0l1.061,8.406s-41.176,14.962-79.631,0Z" transform="translate(-116.008 -418.094)" fill="#0a0a4f"/>
        <g id="Grupo_4387" data-name="Grupo 4387" transform="translate(49.898 106.751)" opacity="0.2">
          <g id="Grupo_4386" data-name="Grupo 4386">
            <g id="Grupo_4385" data-name="Grupo 4385" clip-path="url(#clip-path-4)">
              <path id="Trazado_2190" data-name="Trazado 2190" d="M270.5,527.149H235.743a4.525,4.525,0,0,1-4.525-4.526V499.2a4.525,4.525,0,0,1,4.525-4.526H270.5a4.526,4.526,0,0,1,4.526,4.526v23.427a4.526,4.526,0,0,1-4.526,4.526" transform="translate(-231.218 -494.671)" fill="#0a0a4f"/>
            </g>
          </g>
        </g>
        <path id="Trazado_2191" data-name="Trazado 2191" d="M660.931,280.064c-.754,4.048-7.407,9.829-12.628.8-4.458-7.705-.583-11.048,3.635-12.124a4.858,4.858,0,0,1,4.484,1.129c1.655,1.527,5.558,4.556,4.509,10.19" transform="translate(-506.843 -210.631)" fill="#f7f7fc"/>
        <path id="Trazado_2192" data-name="Trazado 2192" d="M274.081,514.223H245.494a5.776,5.776,0,0,1-5.776-5.776V488.276a5.776,5.776,0,0,1,5.776-5.776h28.588a5.776,5.776,0,0,1,5.776,5.776v20.171a5.776,5.776,0,0,1-5.776,5.776" transform="translate(-187.986 -378.375)" fill="#fff"/>
        <path id="Trazado_2193" data-name="Trazado 2193" d="M313.61,584.634H303.167a1.475,1.475,0,0,1-1.473-1.474v-2.016a1.475,1.475,0,0,1,1.473-1.474H313.61a1.475,1.475,0,0,1,1.473,1.474v2.016a1.475,1.475,0,0,1-1.473,1.474" transform="translate(-236.587 -454.576)" fill="#0a0a4f"/>
        <path id="Trazado_2194" data-name="Trazado 2194" d="M376.6,531.169a3.669,3.669,0,1,1-3.669-3.669,3.669,3.669,0,0,1,3.669,3.669" transform="translate(-289.577 -413.664)" fill="#004de8"/>
        <path id="Trazado_2195" data-name="Trazado 2195" d="M323.055,531.169a3.669,3.669,0,1,1-3.669-3.669,3.669,3.669,0,0,1,3.669,3.669" transform="translate(-247.585 -413.664)" fill="#ffa414"/>
        <path id="Trazado_2196" data-name="Trazado 2196" d="M269.506,530.84a3.669,3.669,0,1,1-3.669-3.669,3.669,3.669,0,0,1,3.669,3.669" transform="translate(-205.592 -413.406)" fill="#eb0050"/>
        <g id="Grupo_4390" data-name="Grupo 4390" transform="translate(42.735 37.334)" opacity="0.2">
          <g id="Grupo_4389" data-name="Grupo 4389">
            <g id="Grupo_4388" data-name="Grupo 4388" clip-path="url(#clip-path-5)">
              <path id="Trazado_2197" data-name="Trazado 2197" d="M205.876,176.453A3.957,3.957,0,1,1,201.952,173a3.711,3.711,0,0,1,3.925,3.453" transform="translate(-198.027 -173)" fill="#fff"/>
            </g>
          </g>
        </g>
        <g id="Grupo_4393" data-name="Grupo 4393" transform="translate(82.163 20.251)" opacity="0.2">
          <g id="Grupo_4392" data-name="Grupo 4392">
            <g id="Grupo_4391" data-name="Grupo 4391" clip-path="url(#clip-path-6)">
              <path id="Trazado_2198" data-name="Trazado 2198" d="M380.858,93.838c7.159,1.518,14.063,5.093,18.686,10.932a24.585,24.585,0,0,1,4.648,18.366,27.9,27.9,0,0,1-4.847,11.159,27.067,27.067,0,0,1-4.3,4.818l-.441-.272c1.182-4.58,2.719-8.9,3.644-13.418.826-4.227,1.851-8.474.9-12.732-1.423-6.588-6.507-11.812-12.158-15.24a38.156,38.156,0,0,0-6.263-3.11l.129-.5" transform="translate(-380.729 -93.838)" fill="#fff"/>
            </g>
          </g>
        </g>
        <path id="Trazado_2199" data-name="Trazado 2199" d="M180.534,795.437l-.079-.009v-4.992a1.172,1.172,0,0,0-1.035-1.163c-11.523-1.366-18.752-.483-21.243-.061a1.169,1.169,0,0,0-.974,1.153v2.376c-2.915.863-5.949,3.06-8.325,7.812-6.629,13.259,29.38,6.94,29.38,6.94s7.549-2.954,2.276-12.056" transform="translate(-116.111 -618.371)" fill="#f7f7fc"/>
        <g id="Grupo_4396" data-name="Grupo 4396" transform="translate(40.24 173.122)" opacity="0.2">
          <g id="Grupo_4395" data-name="Grupo 4395">
            <g id="Grupo_4394" data-name="Grupo 4394" clip-path="url(#clip-path-7)">
              <path id="Trazado_2200" data-name="Trazado 2200" d="M186.516,803.627a10.923,10.923,0,0,1,5.524-1.4l.733.016c.159.013,1.041.108,1.218.126a13.628,13.628,0,0,1,2.879.67,7.294,7.294,0,0,1,1.67,1.033,7.116,7.116,0,0,1,1.9,2.266.12.12,0,0,1-.132.171,10.539,10.539,0,0,1-1.854-.5,23.7,23.7,0,0,1-2.865-1.08,15.342,15.342,0,0,0-1.977-.877c-.157-.041-.9-.245-1.05-.281a12.537,12.537,0,0,0-5.952.051.109.109,0,0,1-.1-.193" transform="translate(-186.464 -802.223)" fill="#0a0a4f"/>
            </g>
          </g>
        </g>
        <g id="Grupo_4399" data-name="Grupo 4399" transform="translate(50.357 155.716)" opacity="0.2">
          <g id="Grupo_4398" data-name="Grupo 4398">
            <g id="Grupo_4397" data-name="Grupo 4397" clip-path="url(#clip-path-8)">
              <path id="Trazado_2201" data-name="Trazado 2201" d="M246.114,734.291l-.669,8a15.68,15.68,0,0,1-12.1,14.028c6.278-.387,11.74-1.346,11.74-1.346s7.55-2.954,2.276-12.056l-.079-.009v-4.992a1.159,1.159,0,0,0-.1-.463c.848-4.976,2.422-12.343,4.747-15.887a35.055,35.055,0,0,0-2.721,3.665,19.566,19.566,0,0,0-3.1,9.062" transform="translate(-233.345 -721.564)" fill="#0a0a4f"/>
            </g>
          </g>
        </g>
        <path id="Trazado_2202" data-name="Trazado 2202" d="M384.908,762.213c-2.491-.422-9.72-1.305-21.243.061-.589.07-2.064.644-2.064,1.237l1.029,4.995a1.17,1.17,0,0,0,1.17,1.17h20.913a1.17,1.17,0,0,0,1.17-1.17l.968-5.21c0-.571-1.379-.987-1.942-1.082" transform="translate(-283.566 -597.198)" fill="#0a0a4f"/>
        <path id="Trazado_2203" data-name="Trazado 2203" d="M359.206,795.437l.079-.009v-4.992a1.172,1.172,0,0,1,1.035-1.163c11.523-1.366,18.752-.483,21.243-.061a1.169,1.169,0,0,1,.974,1.153v2.376c2.915.863,5.949,3.06,8.325,7.812,6.629,13.259-29.38,6.94-29.38,6.94s-7.549-2.954-2.276-12.056" transform="translate(-280.221 -618.371)" fill="#f7f7fc"/>
        <g id="Grupo_4402" data-name="Grupo 4402" transform="translate(89.176 173.125)" opacity="0.2">
          <g id="Grupo_4401" data-name="Grupo 4401">
            <g id="Grupo_4400" data-name="Grupo 4400" clip-path="url(#clip-path-9)">
              <path id="Trazado_2204" data-name="Trazado 2204" d="M427.072,803.831a12.539,12.539,0,0,0-5.953-.051c-.14.034-.9.241-1.05.281a15.357,15.357,0,0,0-1.977.877,23.7,23.7,0,0,1-2.865,1.08,10.516,10.516,0,0,1-1.854.5.119.119,0,0,1-.132-.171,7.51,7.51,0,0,1,1.168-1.614,7.181,7.181,0,0,1,3.345-1.988,19.265,19.265,0,0,1,3.4-.5,11.065,11.065,0,0,1,6.012,1.394.108.108,0,0,1-.1.193" transform="translate(-413.228 -802.236)" fill="#0a0a4f"/>
            </g>
          </g>
        </g>
        <g id="Grupo_4405" data-name="Grupo 4405" transform="translate(74.466 155.716)" opacity="0.2">
          <g id="Grupo_4404" data-name="Grupo 4404">
            <g id="Grupo_4403" data-name="Grupo 4403" clip-path="url(#clip-path-8)">
              <path id="Trazado_2205" data-name="Trazado 2205" d="M350.88,734.291l.669,8a15.68,15.68,0,0,0,12.1,14.028c-6.278-.387-11.74-1.346-11.74-1.346s-7.55-2.954-2.276-12.056l.079-.009v-4.992a1.159,1.159,0,0,1,.1-.463c-.848-4.976-2.422-12.343-4.747-15.887a35.055,35.055,0,0,1,2.721,3.665,19.566,19.566,0,0,1,3.1,9.062" transform="translate(-345.063 -721.564)" fill="#0a0a4f"/>
            </g>
          </g>
        </g>
        <g id="Grupo_4408" data-name="Grupo 4408" transform="translate(13.581 126.223)" opacity="0.2">
          <g id="Grupo_4407" data-name="Grupo 4407">
            <g id="Grupo_4406" data-name="Grupo 4406" clip-path="url(#clip-path-11)">
              <path id="Trazado_2206" data-name="Trazado 2206" d="M68.6,586.26c-.276,4.847-3.513,8.3-5.671,8.57.843-.105,1.377-1.006,1.8-1.725a9.757,9.757,0,0,0,1.438-6.809,1.228,1.228,0,1,1,2.436-.036" transform="translate(-62.932 -584.898)" fill="#0a0a4f"/>
            </g>
          </g>
        </g>
        <g id="Grupo_4411" data-name="Grupo 4411" transform="translate(15.739 29.021)" opacity="0.2">
          <g id="Grupo_4410" data-name="Grupo 4410">
            <g id="Grupo_4409" data-name="Grupo 4409" clip-path="url(#clip-path-12)">
              <path id="Trazado_2207" data-name="Trazado 2207" d="M80.053,134.477a20.86,20.86,0,0,0-.233,31.185,39.991,39.991,0,0,1,.233-31.185" transform="translate(-72.932 -134.477)" fill="#0a0a4f"/>
            </g>
          </g>
        </g>
        <g id="Grupo_4414" data-name="Grupo 4414" transform="translate(118.2 28.715)" opacity="0.2">
          <g id="Grupo_4413" data-name="Grupo 4413">
            <g id="Grupo_4412" data-name="Grupo 4412" clip-path="url(#clip-path-13)">
              <path id="Trazado_2208" data-name="Trazado 2208" d="M555.235,149.054a19.95,19.95,0,0,0-7.514-15.993,40,40,0,0,1,.231,31.81,20.006,20.006,0,0,0,7.283-15.817" transform="translate(-547.721 -133.061)" fill="#0a0a4f"/>
            </g>
          </g>
        </g>
        <path id="Trazado_2209" data-name="Trazado 2209" d="M236.268,331.735a108.926,108.926,0,0,0-11.225,7.3l-.159-.622a47.962,47.962,0,0,1-31.919,11.726c-13.678,0-25.926-5.384-34.159-13.873q-1.489,1.418-3.009,2.934a54.375,54.375,0,0,0,36.974,13.961c18.4,0,34.522-8.571,43.5-21.422" transform="translate(-122.176 -260.146)" fill="#f7f7fc"/>
        <g id="Grupo_4417" data-name="Grupo 4417" transform="translate(33.622 71.589)" opacity="0.2">
          <g id="Grupo_4416" data-name="Grupo 4416">
            <g id="Grupo_4415" data-name="Grupo 4415" clip-path="url(#clip-path-14)">
              <path id="Trazado_2210" data-name="Trazado 2210" d="M236.268,331.735a108.926,108.926,0,0,0-11.225,7.3l-.159-.622a47.962,47.962,0,0,1-31.919,11.726c-13.678,0-25.926-5.384-34.159-13.873q-1.489,1.418-3.009,2.934a54.375,54.375,0,0,0,36.974,13.961c18.4,0,34.522-8.571,43.5-21.422" transform="translate(-155.798 -331.735)" fill="#0a0a4f"/>
            </g>
          </g>
        </g>
        <g id="Grupo_4420" data-name="Grupo 4420" transform="translate(29.119 90.434)" opacity="0.2">
          <g id="Grupo_4419" data-name="Grupo 4419">
            <g id="Grupo_4418" data-name="Grupo 4418" clip-path="url(#clip-path-15)">
              <path id="Trazado_2211" data-name="Trazado 2211" d="M134.932,442.5s6.15-17.631,7.769-23.091c.131-.442.647-.432.709-.143L140.327,434.3Z" transform="translate(-134.932 -419.06)" fill="#0a0a4f"/>
            </g>
          </g>
        </g>
        <g id="Grupo_4423" data-name="Grupo 4423" transform="translate(137.666 58.102)" opacity="0.2">
          <g id="Grupo_4422" data-name="Grupo 4422">
            <g id="Grupo_4421" data-name="Grupo 4421" clip-path="url(#clip-path-16)">
              <path id="Trazado_2212" data-name="Trazado 2212" d="M643.995,269.425c-1.939,1.368-3.84,3-4.159,5.422a7.341,7.341,0,0,0,1.2,4.553,32.321,32.321,0,0,0,4.828,6.152l-.128.146a33.432,33.432,0,0,1-4.036-3.516c-2.652-2.665-5.631-7.655-2.3-11a6.685,6.685,0,0,1,4.544-1.948l.053.187" transform="translate(-637.924 -269.238)" fill="#0a0a4f"/>
            </g>
          </g>
        </g>
        <path id="Trazado_2213" data-name="Trazado 2213" d="M189.608,29.349c-.089-.212-.177-.424-.269-.634C181.961,11.916,163.431,0,141.734,0,119.907,0,101.284,12.061,94,29.021c-.047.109-.091.219-.137.329a39.95,39.95,0,0,0-.481,29.889q.186.486.384.968c7.117,17.247,25.907,29.568,47.97,29.568,21.925,0,40.618-12.169,47.835-29.249.18-.426.35-.855.515-1.287a39.932,39.932,0,0,0-.477-29.889m-47.68,57.4c-18.164,0-33.806-9.492-40.872-23.146a36.493,36.493,0,0,1-1.908-4.369,35.126,35.126,0,0,1,.267-24.675,37.608,37.608,0,0,1,4.949-8.924c8.018-10.761,21.846-17.87,37.564-17.87s29.539,7.106,37.559,17.863a38.048,38.048,0,0,1,3.976,6.636,35.162,35.162,0,0,1,1.246,26.971,36.483,36.483,0,0,1-1.9,4.347c-7.06,13.666-22.71,23.168-40.884,23.168" transform="translate(-71.138)" fill="#f7f7fc"/>
        <g id="Grupo_4426" data-name="Grupo 4426" transform="translate(105.032 86.034)" opacity="0.2">
          <g id="Grupo_4425" data-name="Grupo 4425">
            <g id="Grupo_4424" data-name="Grupo 4424" clip-path="url(#clip-path-17)">
              <path id="Trazado_2214" data-name="Trazado 2214" d="M490.622,408.047a.1.1,0,0,0,.039-.12l-3.695-9.256-.225.163a.1.1,0,0,0-.039.1l1.962,10.173a.1.1,0,0,0,.149.065Z" transform="translate(-486.701 -398.671)" fill="#0a0a4f"/>
            </g>
          </g>
        </g>
      </g>
    </g>
  </g>
</svg>
